<?xml version="1.0"?>
<svg xmlns="http://www.w3.org/2000/svg" xmlns:xlink="http://www.w3.org/1999/xlink" version="1.1" id="Capa_1" x="0px" y="0px" viewBox="0 0 512 512" style="enable-background:new 0 0 512 512;" xml:space="preserve" width="512px" height="512px" class=""><g><g>
	<g>
		<g>
			<path d="M191,120c11.046,0,20-8.954,20-20c0-4.503,7.754-11.41,15.253-18.09C240.918,68.849,261,50.959,261,20     c0-11.046-8.954-20-20-20s-20,8.954-20,20c0,12.393-8.114,20.249-21.352,32.042C186.884,63.411,171,77.56,171,100     C171,111.046,179.954,120,191,120z" data-original="#000000" class="active-path" data-old_color="#F7CFCF" fill="#F7CECE"/>
			<path d="M281,120c11.046,0,20-8.954,20-20c0-4.503,7.754-11.41,15.253-18.09C330.918,68.849,351,50.959,351,20     c0-11.046-8.954-20-20-20c-11.046,0-20,8.954-20,20c0,12.393-8.114,20.249-21.352,32.042C276.884,63.411,261,77.56,261,100     C261,111.046,269.954,120,281,120z" data-original="#000000" class="active-path" data-old_color="#F7CFCF" fill="#F7CECE"/>
			<path d="M101,120c11.046,0,20-8.954,20-20c0-4.503,7.754-11.41,15.253-18.09C150.917,68.849,171,50.959,171,20     c0-11.046-8.954-20-20-20s-20,8.954-20,20c0,12.393-8.114,20.249-21.352,32.042C96.884,63.411,81,77.56,81,100     C81,111.046,89.954,120,101,120z" data-original="#000000" class="active-path" data-old_color="#F7CFCF" fill="#F7CECE"/>
			<path d="M506.236,225.952C502.478,222.144,497.351,220,492,220h-66.726l7.992-35.622c1.33-5.926-0.106-12.135-3.901-16.877     c-3.796-4.741-9.54-7.501-15.614-7.501H20.001c-6.084,0-11.838,2.77-15.633,7.526c-3.795,4.756-5.219,10.979-3.869,16.912     l43.002,188.966c8.794,38.642,30.512,73.583,61.224,98.595H20c-11.046,0-20,8.954-20,20c0,11.046,8.954,20,20,20h394     c11.046,0,20-8.954,20-20c0-11.046-8.954-20-20-20h-84.327c4.527-3.699,8.9-7.639,13.1-11.814     c7.835-7.786,7.874-20.449,0.087-28.284c-7.786-7.834-20.45-7.873-28.284-0.087C288.502,457.729,253.912,472,217.178,472     c-64.895,0-120.275-44.193-134.674-107.47L45.063,200h343.704l-36.822,164.121c-0.01,0.042-0.013,0.084-0.022,0.126     c-0.085,0.394-0.144,0.796-0.206,1.199c-0.044,0.284-0.098,0.569-0.13,0.853c-0.03,0.276-0.039,0.557-0.058,0.836     c-0.029,0.415-0.06,0.829-0.063,1.241c0,0.041-0.006,0.081-0.006,0.123c0,0.173,0.022,0.341,0.026,0.513     c0.012,0.461,0.027,0.921,0.07,1.377c0.023,0.245,0.063,0.485,0.095,0.727c0.053,0.403,0.105,0.805,0.183,1.202     c0.058,0.301,0.135,0.594,0.206,0.889c0.08,0.326,0.155,0.654,0.251,0.975c0.1,0.339,0.219,0.669,0.337,1     c0.096,0.27,0.188,0.541,0.295,0.806c0.14,0.347,0.299,0.684,0.458,1.022c0.114,0.243,0.225,0.487,0.349,0.725     c0.171,0.326,0.357,0.642,0.545,0.958c0.143,0.24,0.282,0.482,0.435,0.716c0.187,0.287,0.388,0.563,0.59,0.84     c0.181,0.249,0.36,0.499,0.553,0.74c0.193,0.241,0.398,0.471,0.602,0.703c0.226,0.258,0.451,0.514,0.69,0.76     c0.196,0.2,0.401,0.389,0.604,0.581c0.267,0.253,0.535,0.504,0.816,0.742c0.205,0.173,0.42,0.335,0.632,0.5     c0.294,0.229,0.588,0.457,0.896,0.67c0.235,0.163,0.479,0.311,0.721,0.464c0.298,0.188,0.595,0.376,0.904,0.549     c0.291,0.163,0.593,0.308,0.894,0.457c0.274,0.135,0.543,0.274,0.824,0.397c0.37,0.162,0.751,0.302,1.132,0.442     c0.23,0.084,0.455,0.176,0.69,0.252c0.435,0.142,0.88,0.257,1.327,0.369c0.168,0.042,0.327,0.1,0.497,0.138     c0.041,0.009,0.081,0.012,0.122,0.021c0.397,0.086,0.802,0.146,1.208,0.208c0.283,0.044,0.566,0.098,0.849,0.13     c0.272,0.029,0.549,0.038,0.824,0.057c0.42,0.029,0.84,0.06,1.257,0.063c0.04,0,0.078,0.006,0.118,0.006     c30.978,0,65.604-14.652,92.622-39.195c30.822-27.997,47.812-64.987,47.852-104.167l0.064-4.87     C512.069,234.916,509.994,229.761,506.236,225.952z M397.541,343.61L416.3,260h54.438     C463.979,301.927,429.706,332.276,397.541,343.61z" data-original="#000000" class="active-path" data-old_color="#F7CFCF" fill="#F7CECE"/>
		</g>
	</g>
</g></g> </svg>
