<?xml version="1.0"?>
<svg xmlns="http://www.w3.org/2000/svg" height="512px" viewBox="0 0 512.00001 512.00001" width="512px" class=""><g><path d="m503.464844 256c0 136.671875-110.792969 247.464844-247.464844 247.464844s-247.464844-110.792969-247.464844-247.464844 110.792969-247.464844 247.464844-247.464844 247.464844 110.792969 247.464844 247.464844zm0 0" fill="#806142" data-original="#806142" class="active-path" style="fill:#936249" data-old_color="#926148"/><path d="m375.46875 179.199219h-238.9375v85.335937c0 56.550782 45.847656 102.398438 102.402344 102.398438h34.132812c56.554688 0 102.402344-45.847656 102.402344-102.398438zm0 0" fill="#d9cdbe" data-original="#D9CDBE" class=""/><path d="m119.46875 366.933594c-9.425781 0-17.070312 7.640625-17.070312 17.066406s7.644531 17.066406 17.070312 17.066406h273.066406c9.425782 0 17.066406-7.640625 17.066406-17.066406s-7.640624-17.066406-17.066406-17.066406zm0 0" fill="#bfb0a1" data-original="#BFB0A1" class=""/><path d="m401.066406 213.332031h-25.597656v85.335938h25.597656c23.5625 0 42.667969-19.105469 42.667969-42.667969s-19.105469-42.667969-42.667969-42.667969zm0 0" fill="#806142" data-original="#806142" class="active-path" style="fill:#936249" data-old_color="#926148"/><g fill="#231f20"><path d="m256 0c-141.386719 0-256 114.613281-256 256s114.613281 256 256 256 256-114.613281 256-256c-.160156-141.320312-114.679688-255.839844-256-256zm0 494.933594c-131.960938 0-238.933594-106.972656-238.933594-238.933594s106.972656-238.933594 238.933594-238.933594 238.933594 106.972656 238.933594 238.933594c-.152344 131.898438-107.035156 238.78125-238.933594 238.933594zm0 0" data-original="#000000" class="" style="fill:#1A1818" data-old_color="#1C1A1A"/><path d="m401.066406 204.800781h-17.066406v-25.601562c0-4.710938-3.820312-8.53125-8.53125-8.53125h-238.9375c-4.710938 0-8.53125 3.820312-8.53125 8.53125v85.335937c.03125 38.164063 19.699219 73.625 52.054688 93.863282h-60.585938c-14.140625 0-25.601562 11.464843-25.601562 25.601562 0 14.140625 11.460937 25.601562 25.601562 25.601562h273.066406c14.136719 0 25.597656-11.460937 25.597656-25.601562 0-14.136719-11.460937-25.601562-25.597656-25.601562h-60.589844c19.429688-12.179688 34.628907-30.058594 43.523438-51.199219h25.597656c28.277344 0 51.199219-22.921875 51.199219-51.199219s-22.921875-51.199219-51.199219-51.199219zm-8.53125 170.667969c4.710938 0 8.53125 3.820312 8.53125 8.53125 0 4.714844-3.820312 8.535156-8.53125 8.535156h-273.066406c-4.714844 0-8.535156-3.820312-8.535156-8.535156 0-4.710938 3.820312-8.53125 8.535156-8.53125zm-119.46875-17.070312h-34.132812c-51.816406-.058594-93.804688-42.050782-93.867188-93.863282v-76.800781h221.867188v76.800781c-.0625 51.8125-42.050782 93.804688-93.867188 93.863282zm128-68.265626h-17.066406v-68.265624h17.066406c18.851563 0 34.132813 15.28125 34.132813 34.132812s-15.28125 34.132812-34.132813 34.132812zm0 0" data-original="#000000" class="" style="fill:#1A1818" data-old_color="#1C1A1A"/><path d="m244.394531 153.601562h17.066407c0-1.519531.222656-1.828124 1.46875-3.550781 6.234374-7.941406 6.234374-19.113281 0-27.050781-1.246094-1.707031-1.46875-2.03125-1.46875-3.550781s.222656-1.816407 1.460937-3.53125c3.082031-3.824219 4.742187-8.605469 4.683594-13.519531h-17.066407c0 1.503906-.222656 1.820312-1.460937 3.535156-6.238281 7.933594-6.238281 19.105468 0 27.042968 1.246094 1.703126 1.46875 2.027344 1.46875 3.546876 0 1.519531-.222656 1.828124-1.46875 3.550781-3.082031 3.828125-4.738281 8.609375-4.683594 13.527343zm0 0" data-original="#000000" class="" style="fill:#1A1818" data-old_color="#1C1A1A"/><path d="m184.660156 153.601562h17.066406c0-1.519531.222657-1.828124 1.46875-3.550781 6.234376-7.941406 6.234376-19.113281 0-27.050781-1.246093-1.707031-1.46875-2.03125-1.46875-3.550781s.222657-1.816407 1.460938-3.53125c3.085938-3.824219 4.742188-8.605469 4.683594-13.519531h-17.066406c0 1.503906-.21875 1.820312-1.457032 3.535156-6.242187 7.933594-6.242187 19.105468 0 27.042968 1.246094 1.703126 1.464844 2.027344 1.464844 3.546876 0 1.519531-.21875 1.828124-1.464844 3.550781-3.085937 3.828125-4.742187 8.609375-4.6875 13.527343zm0 0" data-original="#000000" class="" style="fill:#1A1818" data-old_color="#1C1A1A"/><path d="m304.128906 153.601562h17.066406c0-1.519531.222657-1.828124 1.46875-3.550781 6.234376-7.941406 6.234376-19.113281 0-27.050781-1.246093-1.707031-1.46875-2.03125-1.46875-3.550781s.222657-1.816407 1.457032-3.53125c3.085937-3.824219 4.742187-8.605469 4.6875-13.519531h-17.066406c0 1.503906-.222657 1.820312-1.460938 3.535156-6.238281 7.933594-6.238281 19.105468 0 27.042968 1.246094 1.703126 1.46875 2.027344 1.46875 3.546876 0 1.519531-.222656 1.828124-1.46875 3.550781-3.085938 3.828125-4.742188 8.609375-4.683594 13.527343zm0 0" data-original="#000000" class="" style="fill:#1A1818" data-old_color="#1C1A1A"/></g></g> </svg>
